<?xml version="1.0" encoding="UTF-8" standalone="no"?>
<!-- Created with Inkscape (http://www.inkscape.org/) -->

<svg
   xmlns:dc="http://purl.org/dc/elements/1.1/"
   xmlns:cc="http://creativecommons.org/ns#"
   xmlns:rdf="http://www.w3.org/1999/02/22-rdf-syntax-ns#"
   xmlns:svg="http://www.w3.org/2000/svg"
   xmlns="http://www.w3.org/2000/svg"
   xmlns:sodipodi="http://sodipodi.sourceforge.net/DTD/sodipodi-0.dtd"
   xmlns:inkscape="http://www.inkscape.org/namespaces/inkscape"
   width="210mm"
   height="297mm"
   viewBox="0 0 744.09448819 1052.3622047"
   id="svg2"
   version="1.1"
   inkscape:version="0.91 r13725"
   sodipodi:docname="logo.svg">
  <defs
     id="defs4" />
  <sodipodi:namedview
     id="base"
     pagecolor="#ffffff"
     bordercolor="#666666"
     borderopacity="1.0"
     inkscape:pageopacity="0.0"
     inkscape:pageshadow="2"
     inkscape:zoom="0.7"
     inkscape:cx="408.68617"
     inkscape:cy="1066.2561"
     inkscape:document-units="px"
     inkscape:current-layer="g4142"
     showgrid="false"
     inkscape:window-width="1920"
     inkscape:window-height="1027"
     inkscape:window-x="-8"
     inkscape:window-y="-8"
     inkscape:window-maximized="1" />
  <metadata
     id="metadata7">
    <rdf:RDF>
      <cc:Work
         rdf:about="">
        <dc:format>image/svg+xml</dc:format>
        <dc:type
           rdf:resource="http://purl.org/dc/dcmitype/StillImage" />
        <dc:title />
      </cc:Work>
    </rdf:RDF>
  </metadata>
  <g
     inkscape:label="Layer 1"
     inkscape:groupmode="layer"
     id="layer1">
    <g
       id="g4148"
       transform="matrix(0.59719804,0,0,0.59719804,109.06133,-205.77898)"
       style="fill:#000000;fill-opacity:1"
       inkscape:export-xdpi="90"
       inkscape:export-ydpi="90">
      <path
         id="text4136"
         d="m 207.55469,500.1543 0,57.56445 11.4375,0 0,-13.63477 c 3.12331,-2.39318 6.38962,-4.36097 9.79687,-5.90234 3.40725,-1.54137 6.67161,-2.3125 9.79492,-2.3125 3.04219,0 5.5174,0.42553 7.42383,1.27734 1.90644,0.81125 3.3668,2.06982 4.38086,3.77344 0.9735,1.54138 1.64275,3.69097 2.00781,6.44922 0.36507,2.71769 0.54688,5.63841 0.54688,8.76172 l 0,1.58789 11.43945,0 0,-7.00391 c 0,-8.3153 -1.92781,-14.68415 -5.78125,-19.10546 -3.85343,-4.42132 -9.45116,-6.63086 -16.79297,-6.63086 -4.01568,0 -7.92931,0.83107 -11.74218,2.49414 -3.81288,1.66306 -7.50472,3.97448 -11.07422,6.93554 l 0,-34.2539 -11.4375,0 z m 154.54297,0 0,57.56445 11.4375,0 0,-14.12305 c 2.92049,-2.2715 6.08494,-4.11547 9.49218,-5.53515 3.40725,-1.46025 6.77349,-2.19141 10.09961,-2.19141 5.96269,0 10.28382,2.10963 12.96094,6.32813 2.34647,3.66191 3.66331,8.8369 3.95313,15.52148 l 11.8164,0 c -0.33946,-9.979 -2.65117,-17.81387 -6.94726,-23.49219 -4.62413,-6.16549 -10.95301,-9.24804 -18.98438,-9.24804 -4.50243,0 -8.55791,0.85106 -12.16797,2.55468 -3.61006,1.66306 -7.01822,3.81266 -10.22265,6.44922 l 0,-33.82812 -11.4375,0 z m -49.10157,24.82422 c -9.6133,0 -17.25875,3.22439 -22.9375,9.67382 -5.08994,5.7857 -7.87421,13.47908 -8.36914,23.06641 l 11.79493,0 c 0.36895,-7.22263 2.04496,-12.70074 5.03124,-16.43359 3.44782,-4.29963 8.27441,-6.44922 14.48047,-6.44922 6.12494,0 10.91157,2.14959 14.35938,6.44922 3.02184,3.73285 4.71845,9.21096 5.0918,16.43359 l 11.79492,0 c -0.49848,-9.58736 -3.30311,-17.2807 -8.42969,-23.06641 -5.67875,-6.44943 -13.28422,-9.67382 -22.81641,-9.67382 z m 153.32618,0 c -9.61331,0 -17.25876,3.22439 -22.9375,9.67382 -5.08995,5.7857 -7.87422,13.47908 -8.36915,23.06641 l 11.79493,0 c 0.36895,-7.22263 2.04496,-12.70074 5.03125,-16.43359 3.44781,-4.29963 8.27441,-6.44922 14.48047,-6.44922 6.12493,0 10.91156,2.14959 14.35937,6.44922 3.02184,3.73285 4.71845,9.21096 5.0918,16.43359 l 11.79492,0 c -0.49848,-9.58736 -3.30311,-17.2807 -8.42969,-23.06641 -5.67875,-6.44943 -13.28422,-9.67382 -22.8164,-9.67382 z m -295.27344,0.30468 c -10.01893,0 -18.09186,3.16249 -24.2168,9.49024 -5.48315,5.70247 -8.48748,13.35566 -9.0293,22.94531 l 11.86915,0 c 0.4263,-6.8592 2.25521,-12.17798 5.49609,-15.94727 3.77231,-4.38074 8.90258,-6.57226 15.39258,-6.57226 3.52893,0 7.13889,0.73116 10.83007,2.1914 3.73175,1.46025 7.34171,3.5499 10.83008,6.26758 l 0.60938,0 0,-12.71679 c -3.12331,-1.58194 -6.57144,-2.92044 -10.34375,-4.01563 -3.73175,-1.09519 -7.5435,-1.64258 -11.4375,-1.64258 z m -33.28906,38.15039 c 0.19804,4.93091 0.98731,9.31375 2.3789,13.14063 1.6225,4.46187 3.91589,8.15177 6.87695,11.07226 2.9205,2.9205 6.42859,5.11202 10.5254,6.57227 4.09681,1.41969 8.59975,2.12891 13.50781,2.12891 3.85343,0 7.48337,-0.50743 10.89062,-1.52149 3.44781,-1.01406 7.07776,-2.4325 10.89063,-4.25781 l 0,-12.5957 -0.60938,0 c -0.85181,0.68956 -2.00654,1.52259 -3.46679,2.49609 -1.46025,0.93294 -3.02249,1.82397 -4.68555,2.67578 -1.90644,0.9735 -4.05603,1.76461 -6.44922,2.37305 -2.39319,0.60844 -4.74653,0.91211 -7.05859,0.91211 -6.65225,0 -11.82249,-2.18957 -15.51367,-6.57031 -3.26896,-3.95907 -5.06254,-9.44196 -5.4043,-16.42579 l -11.88281,0 z m 69.79492,0 0,31.39258 11.4375,0 0,-31.39258 -11.4375,0 z m 45.38867,0 0,31.39258 11.43945,0 0,-31.39258 -11.43945,0 z m 28.7168,0 c 0.40745,9.86811 3.20238,17.75971 8.39843,23.66602 5.67875,6.40887 13.3242,9.61328 22.9375,9.61328 9.53219,0 17.13766,-3.20441 22.81641,-9.61328 5.23344,-5.90632 8.0486,-13.7979 8.45898,-23.66602 l -11.81054,0 c -0.32026,7.33256 -2.03438,12.97936 -5.16602,16.91211 -3.44781,4.34019 -8.21445,6.50977 -14.29883,6.50977 -6.16549,0 -10.97211,-2.18957 -14.41992,-6.57031 -3.0921,-3.96517 -4.7845,-9.59131 -5.10351,-16.85157 l -11.8125,0 z m 80.4375,0 0,31.39258 10.70898,0 0.72852,-3.16211 c 2.79881,1.54138 5.63959,2.75802 8.51953,3.65039 2.87993,0.93294 6.24617,1.39844 10.09961,1.39844 4.13737,0 7.92914,-0.79111 11.37695,-2.37305 3.44781,-1.6225 6.61225,-4.03579 9.49219,-7.24023 2.71768,-3.08275 4.86728,-6.8945 6.44922,-11.4375 1.3205,-3.69741 2.09405,-7.77881 2.33984,-12.22852 l -11.7832,0 c -0.34977,7.4617 -2.12416,13.06723 -5.3418,16.79102 -3.5695,4.13737 -8.51796,6.20508 -14.8457,6.20508 -2.96106,0 -5.61808,-0.28369 -7.97071,-0.85157 -2.31206,-0.56787 -5.09094,-1.58076 -8.33593,-3.04101 l 0,-19.10352 -11.4375,0 z m 72.88867,0 c 0.40746,9.86811 3.20238,17.75971 8.39844,23.66602 5.67874,6.40887 13.32419,9.61328 22.9375,9.61328 9.53218,0 17.13765,-3.20441 22.8164,-9.61328 5.23345,-5.90632 8.0486,-13.7979 8.45899,-23.66602 l -11.81055,0 c -0.32026,7.33256 -2.03438,12.97936 -5.16602,16.91211 -3.44781,4.34019 -8.21445,6.50977 -14.29882,6.50977 -6.1655,0 -10.97212,-2.18957 -14.41993,-6.57031 -3.0921,-3.96517 -4.7845,-9.59131 -5.10351,-16.85157 l -11.8125,0 z"
         style="font-style:normal;font-weight:normal;font-size:124.60793304px;line-height:125%;font-family:sans-serif;letter-spacing:0px;word-spacing:0px;fill:#000000;fill-opacity:1;stroke:none;stroke-width:1px;stroke-linecap:butt;stroke-linejoin:miter;stroke-opacity:1"
         inkscape:connector-curvature="0" />
      <path
         inkscape:connector-curvature="0"
         id="path4140"
         d="m 380.71344,461.64872 a 185.71428,98.928574 0 0 0 -79.73242,9.6875 185.71428,91.071434 0 0 1 36.16211,-1.83203 185.71428,91.071434 0 0 1 185.71485,91.07226 185.71428,91.071434 0 0 1 -185.71485,91.07227 185.71428,91.071434 0 0 1 -35.625,-1.72266 185.71428,98.928574 0 0 0 79.19531,9.57813 185.71428,98.928574 0 0 0 185.71485,-98.92774 185.71428,98.928574 0 0 0 -185.71485,-98.92773 z"
         style="fill:#000000;fill-opacity:1;stroke:none;stroke-opacity:1" />
    </g>
    <g
       style="fill:#e9e9e9;fill-opacity:1"
       transform="translate(13.571427,-185.71428)"
       id="g4152">
      <path
         inkscape:connector-curvature="0"
         style="font-style:normal;font-weight:normal;font-size:124.60793304px;line-height:125%;font-family:sans-serif;letter-spacing:0px;word-spacing:0px;fill:#e9e9e9;fill-opacity:1;stroke:none;stroke-width:1px;stroke-linecap:butt;stroke-linejoin:miter;stroke-opacity:1"
         d="m 207.55469,500.1543 0,57.56445 11.4375,0 0,-13.63477 c 3.12331,-2.39318 6.38962,-4.36097 9.79687,-5.90234 3.40725,-1.54137 6.67161,-2.3125 9.79492,-2.3125 3.04219,0 5.5174,0.42553 7.42383,1.27734 1.90644,0.81125 3.3668,2.06982 4.38086,3.77344 0.9735,1.54138 1.64275,3.69097 2.00781,6.44922 0.36507,2.71769 0.54688,5.63841 0.54688,8.76172 l 0,1.58789 11.43945,0 0,-7.00391 c 0,-8.3153 -1.92781,-14.68415 -5.78125,-19.10546 -3.85343,-4.42132 -9.45116,-6.63086 -16.79297,-6.63086 -4.01568,0 -7.92931,0.83107 -11.74218,2.49414 -3.81288,1.66306 -7.50472,3.97448 -11.07422,6.93554 l 0,-34.2539 -11.4375,0 z m 154.54297,0 0,57.56445 11.4375,0 0,-14.12305 c 2.92049,-2.2715 6.08494,-4.11547 9.49218,-5.53515 3.40725,-1.46025 6.77349,-2.19141 10.09961,-2.19141 5.96269,0 10.28382,2.10963 12.96094,6.32813 2.34647,3.66191 3.66331,8.8369 3.95313,15.52148 l 11.8164,0 c -0.33946,-9.979 -2.65117,-17.81387 -6.94726,-23.49219 -4.62413,-6.16549 -10.95301,-9.24804 -18.98438,-9.24804 -4.50243,0 -8.55791,0.85106 -12.16797,2.55468 -3.61006,1.66306 -7.01822,3.81266 -10.22265,6.44922 l 0,-33.82812 -11.4375,0 z m -49.10157,24.82422 c -9.6133,0 -17.25875,3.22439 -22.9375,9.67382 -5.08994,5.7857 -7.87421,13.47908 -8.36914,23.06641 l 11.79493,0 c 0.36895,-7.22263 2.04496,-12.70074 5.03124,-16.43359 3.44782,-4.29963 8.27441,-6.44922 14.48047,-6.44922 6.12494,0 10.91157,2.14959 14.35938,6.44922 3.02184,3.73285 4.71845,9.21096 5.0918,16.43359 l 11.79492,0 c -0.49848,-9.58736 -3.30311,-17.2807 -8.42969,-23.06641 -5.67875,-6.44943 -13.28422,-9.67382 -22.81641,-9.67382 z m 153.32618,0 c -9.61331,0 -17.25876,3.22439 -22.9375,9.67382 -5.08995,5.7857 -7.87422,13.47908 -8.36915,23.06641 l 11.79493,0 c 0.36895,-7.22263 2.04496,-12.70074 5.03125,-16.43359 3.44781,-4.29963 8.27441,-6.44922 14.48047,-6.44922 6.12493,0 10.91156,2.14959 14.35937,6.44922 3.02184,3.73285 4.71845,9.21096 5.0918,16.43359 l 11.79492,0 c -0.49848,-9.58736 -3.30311,-17.2807 -8.42969,-23.06641 -5.67875,-6.44943 -13.28422,-9.67382 -22.8164,-9.67382 z m -295.27344,0.30468 c -10.01893,0 -18.09186,3.16249 -24.2168,9.49024 -5.48315,5.70247 -8.48748,13.35566 -9.0293,22.94531 l 11.86915,0 c 0.4263,-6.8592 2.25521,-12.17798 5.49609,-15.94727 3.77231,-4.38074 8.90258,-6.57226 15.39258,-6.57226 3.52893,0 7.13889,0.73116 10.83007,2.1914 3.73175,1.46025 7.34171,3.5499 10.83008,6.26758 l 0.60938,0 0,-12.71679 c -3.12331,-1.58194 -6.57144,-2.92044 -10.34375,-4.01563 -3.73175,-1.09519 -7.5435,-1.64258 -11.4375,-1.64258 z m -33.28906,38.15039 c 0.19804,4.93091 0.98731,9.31375 2.3789,13.14063 1.6225,4.46187 3.91589,8.15177 6.87695,11.07226 2.9205,2.9205 6.42859,5.11202 10.5254,6.57227 4.09681,1.41969 8.59975,2.12891 13.50781,2.12891 3.85343,0 7.48337,-0.50743 10.89062,-1.52149 3.44781,-1.01406 7.07776,-2.4325 10.89063,-4.25781 l 0,-12.5957 -0.60938,0 c -0.85181,0.68956 -2.00654,1.52259 -3.46679,2.49609 -1.46025,0.93294 -3.02249,1.82397 -4.68555,2.67578 -1.90644,0.9735 -4.05603,1.76461 -6.44922,2.37305 -2.39319,0.60844 -4.74653,0.91211 -7.05859,0.91211 -6.65225,0 -11.82249,-2.18957 -15.51367,-6.57031 -3.26896,-3.95907 -5.06254,-9.44196 -5.4043,-16.42579 l -11.88281,0 z m 69.79492,0 0,31.39258 11.4375,0 0,-31.39258 -11.4375,0 z m 45.38867,0 0,31.39258 11.43945,0 0,-31.39258 -11.43945,0 z m 28.7168,0 c 0.40745,9.86811 3.20238,17.75971 8.39843,23.66602 5.67875,6.40887 13.3242,9.61328 22.9375,9.61328 9.53219,0 17.13766,-3.20441 22.81641,-9.61328 5.23344,-5.90632 8.0486,-13.7979 8.45898,-23.66602 l -11.81054,0 c -0.32026,7.33256 -2.03438,12.97936 -5.16602,16.91211 -3.44781,4.34019 -8.21445,6.50977 -14.29883,6.50977 -6.16549,0 -10.97211,-2.18957 -14.41992,-6.57031 -3.0921,-3.96517 -4.7845,-9.59131 -5.10351,-16.85157 l -11.8125,0 z m 80.4375,0 0,31.39258 10.70898,0 0.72852,-3.16211 c 2.79881,1.54138 5.63959,2.75802 8.51953,3.65039 2.87993,0.93294 6.24617,1.39844 10.09961,1.39844 4.13737,0 7.92914,-0.79111 11.37695,-2.37305 3.44781,-1.6225 6.61225,-4.03579 9.49219,-7.24023 2.71768,-3.08275 4.86728,-6.8945 6.44922,-11.4375 1.3205,-3.69741 2.09405,-7.77881 2.33984,-12.22852 l -11.7832,0 c -0.34977,7.4617 -2.12416,13.06723 -5.3418,16.79102 -3.5695,4.13737 -8.51796,6.20508 -14.8457,6.20508 -2.96106,0 -5.61808,-0.28369 -7.97071,-0.85157 -2.31206,-0.56787 -5.09094,-1.58076 -8.33593,-3.04101 l 0,-19.10352 -11.4375,0 z m 72.88867,0 c 0.40746,9.86811 3.20238,17.75971 8.39844,23.66602 5.67874,6.40887 13.32419,9.61328 22.9375,9.61328 9.53218,0 17.13765,-3.20441 22.8164,-9.61328 5.23345,-5.90632 8.0486,-13.7979 8.45899,-23.66602 l -11.81055,0 c -0.32026,7.33256 -2.03438,12.97936 -5.16602,16.91211 -3.44781,4.34019 -8.21445,6.50977 -14.29882,6.50977 -6.1655,0 -10.97212,-2.18957 -14.41993,-6.57031 -3.0921,-3.96517 -4.7845,-9.59131 -5.10351,-16.85157 l -11.8125,0 z"
         id="path4154" />
      <path
         style="fill:#e9e9e9;fill-opacity:1;stroke:none;stroke-opacity:1"
         d="m 380.71344,461.64872 a 185.71428,98.928574 0 0 0 -79.73242,9.6875 185.71428,91.071434 0 0 1 36.16211,-1.83203 185.71428,91.071434 0 0 1 185.71485,91.07226 185.71428,91.071434 0 0 1 -185.71485,91.07227 185.71428,91.071434 0 0 1 -35.625,-1.72266 185.71428,98.928574 0 0 0 79.19531,9.57813 185.71428,98.928574 0 0 0 185.71485,-98.92774 185.71428,98.928574 0 0 0 -185.71485,-98.92773 z"
         id="path4156"
         inkscape:connector-curvature="0" />
    </g>
    <g
       id="g4158"
       transform="translate(25.693258,79.222641)"
       style="fill:#d3a1af;fill-opacity:1">
      <path
         id="path4160"
         d="m 207.55469,500.1543 0,57.56445 11.4375,0 0,-13.63477 c 3.12331,-2.39318 6.38962,-4.36097 9.79687,-5.90234 3.40725,-1.54137 6.67161,-2.3125 9.79492,-2.3125 3.04219,0 5.5174,0.42553 7.42383,1.27734 1.90644,0.81125 3.3668,2.06982 4.38086,3.77344 0.9735,1.54138 1.64275,3.69097 2.00781,6.44922 0.36507,2.71769 0.54688,5.63841 0.54688,8.76172 l 0,1.58789 11.43945,0 0,-7.00391 c 0,-8.3153 -1.92781,-14.68415 -5.78125,-19.10546 -3.85343,-4.42132 -9.45116,-6.63086 -16.79297,-6.63086 -4.01568,0 -7.92931,0.83107 -11.74218,2.49414 -3.81288,1.66306 -7.50472,3.97448 -11.07422,6.93554 l 0,-34.2539 -11.4375,0 z m 154.54297,0 0,57.56445 11.4375,0 0,-14.12305 c 2.92049,-2.2715 6.08494,-4.11547 9.49218,-5.53515 3.40725,-1.46025 6.77349,-2.19141 10.09961,-2.19141 5.96269,0 10.28382,2.10963 12.96094,6.32813 2.34647,3.66191 3.66331,8.8369 3.95313,15.52148 l 11.8164,0 c -0.33946,-9.979 -2.65117,-17.81387 -6.94726,-23.49219 -4.62413,-6.16549 -10.95301,-9.24804 -18.98438,-9.24804 -4.50243,0 -8.55791,0.85106 -12.16797,2.55468 -3.61006,1.66306 -7.01822,3.81266 -10.22265,6.44922 l 0,-33.82812 -11.4375,0 z m -49.10157,24.82422 c -9.6133,0 -17.25875,3.22439 -22.9375,9.67382 -5.08994,5.7857 -7.87421,13.47908 -8.36914,23.06641 l 11.79493,0 c 0.36895,-7.22263 2.04496,-12.70074 5.03124,-16.43359 3.44782,-4.29963 8.27441,-6.44922 14.48047,-6.44922 6.12494,0 10.91157,2.14959 14.35938,6.44922 3.02184,3.73285 4.71845,9.21096 5.0918,16.43359 l 11.79492,0 c -0.49848,-9.58736 -3.30311,-17.2807 -8.42969,-23.06641 -5.67875,-6.44943 -13.28422,-9.67382 -22.81641,-9.67382 z m 153.32618,0 c -9.61331,0 -17.25876,3.22439 -22.9375,9.67382 -5.08995,5.7857 -7.87422,13.47908 -8.36915,23.06641 l 11.79493,0 c 0.36895,-7.22263 2.04496,-12.70074 5.03125,-16.43359 3.44781,-4.29963 8.27441,-6.44922 14.48047,-6.44922 6.12493,0 10.91156,2.14959 14.35937,6.44922 3.02184,3.73285 4.71845,9.21096 5.0918,16.43359 l 11.79492,0 c -0.49848,-9.58736 -3.30311,-17.2807 -8.42969,-23.06641 -5.67875,-6.44943 -13.28422,-9.67382 -22.8164,-9.67382 z m -295.27344,0.30468 c -10.01893,0 -18.09186,3.16249 -24.2168,9.49024 -5.48315,5.70247 -8.48748,13.35566 -9.0293,22.94531 l 11.86915,0 c 0.4263,-6.8592 2.25521,-12.17798 5.49609,-15.94727 3.77231,-4.38074 8.90258,-6.57226 15.39258,-6.57226 3.52893,0 7.13889,0.73116 10.83007,2.1914 3.73175,1.46025 7.34171,3.5499 10.83008,6.26758 l 0.60938,0 0,-12.71679 c -3.12331,-1.58194 -6.57144,-2.92044 -10.34375,-4.01563 -3.73175,-1.09519 -7.5435,-1.64258 -11.4375,-1.64258 z m -33.28906,38.15039 c 0.19804,4.93091 0.98731,9.31375 2.3789,13.14063 1.6225,4.46187 3.91589,8.15177 6.87695,11.07226 2.9205,2.9205 6.42859,5.11202 10.5254,6.57227 4.09681,1.41969 8.59975,2.12891 13.50781,2.12891 3.85343,0 7.48337,-0.50743 10.89062,-1.52149 3.44781,-1.01406 7.07776,-2.4325 10.89063,-4.25781 l 0,-12.5957 -0.60938,0 c -0.85181,0.68956 -2.00654,1.52259 -3.46679,2.49609 -1.46025,0.93294 -3.02249,1.82397 -4.68555,2.67578 -1.90644,0.9735 -4.05603,1.76461 -6.44922,2.37305 -2.39319,0.60844 -4.74653,0.91211 -7.05859,0.91211 -6.65225,0 -11.82249,-2.18957 -15.51367,-6.57031 -3.26896,-3.95907 -5.06254,-9.44196 -5.4043,-16.42579 l -11.88281,0 z m 69.79492,0 0,31.39258 11.4375,0 0,-31.39258 -11.4375,0 z m 45.38867,0 0,31.39258 11.43945,0 0,-31.39258 -11.43945,0 z m 28.7168,0 c 0.40745,9.86811 3.20238,17.75971 8.39843,23.66602 5.67875,6.40887 13.3242,9.61328 22.9375,9.61328 9.53219,0 17.13766,-3.20441 22.81641,-9.61328 5.23344,-5.90632 8.0486,-13.7979 8.45898,-23.66602 l -11.81054,0 c -0.32026,7.33256 -2.03438,12.97936 -5.16602,16.91211 -3.44781,4.34019 -8.21445,6.50977 -14.29883,6.50977 -6.16549,0 -10.97211,-2.18957 -14.41992,-6.57031 -3.0921,-3.96517 -4.7845,-9.59131 -5.10351,-16.85157 l -11.8125,0 z m 80.4375,0 0,31.39258 10.70898,0 0.72852,-3.16211 c 2.79881,1.54138 5.63959,2.75802 8.51953,3.65039 2.87993,0.93294 6.24617,1.39844 10.09961,1.39844 4.13737,0 7.92914,-0.79111 11.37695,-2.37305 3.44781,-1.6225 6.61225,-4.03579 9.49219,-7.24023 2.71768,-3.08275 4.86728,-6.8945 6.44922,-11.4375 1.3205,-3.69741 2.09405,-7.77881 2.33984,-12.22852 l -11.7832,0 c -0.34977,7.4617 -2.12416,13.06723 -5.3418,16.79102 -3.5695,4.13737 -8.51796,6.20508 -14.8457,6.20508 -2.96106,0 -5.61808,-0.28369 -7.97071,-0.85157 -2.31206,-0.56787 -5.09094,-1.58076 -8.33593,-3.04101 l 0,-19.10352 -11.4375,0 z m 72.88867,0 c 0.40746,9.86811 3.20238,17.75971 8.39844,23.66602 5.67874,6.40887 13.32419,9.61328 22.9375,9.61328 9.53218,0 17.13765,-3.20441 22.8164,-9.61328 5.23345,-5.90632 8.0486,-13.7979 8.45899,-23.66602 l -11.81055,0 c -0.32026,7.33256 -2.03438,12.97936 -5.16602,16.91211 -3.44781,4.34019 -8.21445,6.50977 -14.29882,6.50977 -6.1655,0 -10.97212,-2.18957 -14.41993,-6.57031 -3.0921,-3.96517 -4.7845,-9.59131 -5.10351,-16.85157 l -11.8125,0 z"
         style="font-style:normal;font-weight:normal;font-size:124.60793304px;line-height:125%;font-family:sans-serif;letter-spacing:0px;word-spacing:0px;fill:#d3a1af;fill-opacity:1;stroke:none;stroke-width:1px;stroke-linecap:butt;stroke-linejoin:miter;stroke-opacity:1"
         inkscape:connector-curvature="0" />
      <path
         inkscape:connector-curvature="0"
         id="path4162"
         d="m 380.71344,461.64872 a 185.71428,98.928574 0 0 0 -79.73242,9.6875 185.71428,91.071434 0 0 1 36.16211,-1.83203 185.71428,91.071434 0 0 1 185.71485,91.07226 185.71428,91.071434 0 0 1 -185.71485,91.07227 185.71428,91.071434 0 0 1 -35.625,-1.72266 185.71428,98.928574 0 0 0 79.19531,9.57813 185.71428,98.928574 0 0 0 185.71485,-98.92774 185.71428,98.928574 0 0 0 -185.71485,-98.92773 z"
         style="fill:#d3a1af;fill-opacity:1;stroke:none;stroke-opacity:1" />
    </g>
    <g
       inkscape:export-ydpi="90"
       inkscape:export-xdpi="90"
       style="fill:#000000;fill-opacity:1"
       transform="matrix(0.59719804,0,0,0.59719804,127.63276,-350.06469)"
       id="g4142">
      <g
         id="g4150"
         transform="matrix(0.47407408,0,0,0.47407408,115.3562,273.5901)"
         inkscape:export-xdpi="90"
         inkscape:export-ydpi="90">
        <rect
           y="172.7085"
           x="105.62916"
           height="452.11133"
           width="452.11133"
           id="rect4148"
           style="fill:#000000;fill-opacity:1;stroke:none;stroke-opacity:1" />
        <path
           id="path4144"
           d="m 221.5608,350.48487 0,57.56445 11.4375,0 0,-13.63477 c 3.12331,-2.39318 6.38962,-4.36097 9.79687,-5.90234 3.40725,-1.54137 6.67161,-2.3125 9.79492,-2.3125 3.04219,0 5.5174,0.42553 7.42383,1.27734 1.90644,0.81125 3.3668,2.06982 4.38086,3.77344 0.9735,1.54138 1.64275,3.69097 2.00781,6.44922 0.36507,2.71769 0.54688,5.63841 0.54688,8.76172 l 0,1.58789 11.43945,0 0,-7.00391 c 0,-8.3153 -1.92781,-14.68415 -5.78125,-19.10546 -3.85343,-4.42132 -9.45116,-6.63086 -16.79297,-6.63086 -4.01568,0 -7.92931,0.83107 -11.74218,2.49414 -3.81288,1.66306 -7.50472,3.97448 -11.07422,6.93554 l 0,-34.2539 -11.4375,0 z m 154.54297,0 0,57.56445 11.4375,0 0,-14.12305 c 2.92049,-2.2715 6.08494,-4.11547 9.49218,-5.53515 3.40725,-1.46025 6.77349,-2.19141 10.09961,-2.19141 5.96269,0 10.28382,2.10963 12.96094,6.32813 2.34647,3.66191 3.66331,8.8369 3.95313,15.52148 l 11.8164,0 c -0.33946,-9.979 -2.65117,-17.81387 -6.94726,-23.49219 -4.62413,-6.16549 -10.95301,-9.24804 -18.98438,-9.24804 -4.50243,0 -8.55791,0.85106 -12.16797,2.55468 -3.61006,1.66306 -7.01822,3.81266 -10.22265,6.44922 l 0,-33.82812 -11.4375,0 z m -49.10157,24.82422 c -9.6133,0 -17.25875,3.22439 -22.9375,9.67382 -5.08994,5.7857 -7.87421,13.47908 -8.36914,23.06641 l 11.79493,0 c 0.36895,-7.22263 2.04496,-12.70074 5.03124,-16.43359 3.44782,-4.29963 8.27441,-6.44922 14.48047,-6.44922 6.12494,0 10.91157,2.14959 14.35938,6.44922 3.02184,3.73285 4.71845,9.21096 5.0918,16.43359 l 11.79492,0 c -0.49848,-9.58736 -3.30311,-17.2807 -8.42969,-23.06641 -5.67875,-6.44943 -13.28422,-9.67382 -22.81641,-9.67382 z m 153.32618,0 c -9.61331,0 -17.25876,3.22439 -22.9375,9.67382 -5.08995,5.7857 -7.87422,13.47908 -8.36915,23.06641 l 11.79493,0 c 0.36895,-7.22263 2.04496,-12.70074 5.03125,-16.43359 3.44781,-4.29963 8.27441,-6.44922 14.48047,-6.44922 6.12493,0 10.91156,2.14959 14.35937,6.44922 3.02184,3.73285 4.71845,9.21096 5.0918,16.43359 l 11.79492,0 c -0.49848,-9.58736 -3.30311,-17.2807 -8.42969,-23.06641 -5.67875,-6.44943 -13.28422,-9.67382 -22.8164,-9.67382 z m -295.27344,0.30468 c -10.01893,0 -18.09186,3.16249 -24.2168,9.49024 -5.48315,5.70247 -8.48748,13.35566 -9.0293,22.94531 l 11.86915,0 c 0.4263,-6.8592 2.25521,-12.17798 5.49609,-15.94727 3.77231,-4.38074 8.90258,-6.57226 15.39258,-6.57226 3.52893,0 7.13889,0.73116 10.83007,2.1914 3.73175,1.46025 7.34171,3.5499 10.83008,6.26758 l 0.60938,0 0,-12.71679 c -3.12331,-1.58194 -6.57144,-2.92044 -10.34375,-4.01563 -3.73175,-1.09519 -7.5435,-1.64258 -11.4375,-1.64258 z m -33.28906,38.15039 c 0.19804,4.93091 0.98731,9.31375 2.3789,13.14063 1.6225,4.46187 3.91589,8.15177 6.87695,11.07226 2.9205,2.9205 6.42859,5.11202 10.5254,6.57227 4.09681,1.41969 8.59975,2.12891 13.50781,2.12891 3.85343,0 7.48337,-0.50743 10.89062,-1.52149 3.44781,-1.01406 7.07776,-2.4325 10.89063,-4.25781 l 0,-12.5957 -0.60938,0 c -0.85181,0.68956 -2.00654,1.52259 -3.46679,2.49609 -1.46025,0.93294 -3.02249,1.82397 -4.68555,2.67578 -1.90644,0.9735 -4.05603,1.76461 -6.44922,2.37305 -2.39319,0.60844 -4.74653,0.91211 -7.05859,0.91211 -6.65225,0 -11.82249,-2.18957 -15.51367,-6.57031 -3.26896,-3.95907 -5.06254,-9.44196 -5.4043,-16.42579 l -11.88281,0 z m 69.79492,0 0,31.39258 11.4375,0 0,-31.39258 -11.4375,0 z m 45.38867,0 0,31.39258 11.43945,0 0,-31.39258 -11.43945,0 z m 28.7168,0 c 0.40745,9.86811 3.20238,17.75971 8.39843,23.66602 5.67875,6.40887 13.3242,9.61328 22.9375,9.61328 9.53219,0 17.13766,-3.20441 22.81641,-9.61328 5.23344,-5.90632 8.0486,-13.7979 8.45898,-23.66602 l -11.81054,0 c -0.32026,7.33256 -2.03438,12.97936 -5.16602,16.91211 -3.44781,4.34019 -8.21445,6.50977 -14.29883,6.50977 -6.16549,0 -10.97211,-2.18957 -14.41992,-6.57031 -3.0921,-3.96517 -4.7845,-9.59131 -5.10351,-16.85157 l -11.8125,0 z m 80.4375,0 0,31.39258 10.70898,0 0.72852,-3.16211 c 2.79881,1.54138 5.63959,2.75802 8.51953,3.65039 2.87993,0.93294 6.24617,1.39844 10.09961,1.39844 4.13737,0 7.92914,-0.79111 11.37695,-2.37305 3.44781,-1.6225 6.61225,-4.03579 9.49219,-7.24023 2.71768,-3.08275 4.86728,-6.8945 6.44922,-11.4375 1.3205,-3.69741 2.09405,-7.77881 2.33984,-12.22852 l -11.7832,0 c -0.34977,7.4617 -2.12416,13.06723 -5.3418,16.79102 -3.5695,4.13737 -8.51796,6.20508 -14.8457,6.20508 -2.96106,0 -5.61808,-0.28369 -7.97071,-0.85157 -2.31206,-0.56787 -5.09094,-1.58076 -8.33593,-3.04101 l 0,-19.10352 -11.4375,0 z m 72.88867,0 c 0.40746,9.86811 3.20238,17.75971 8.39844,23.66602 5.67874,6.40887 13.32419,9.61328 22.9375,9.61328 9.53218,0 17.13765,-3.20441 22.8164,-9.61328 5.23345,-5.90632 8.0486,-13.7979 8.45899,-23.66602 l -11.81055,0 c -0.32026,7.33256 -2.03438,12.97936 -5.16602,16.91211 -3.44781,4.34019 -8.21445,6.50977 -14.29882,6.50977 -6.1655,0 -10.97212,-2.18957 -14.41993,-6.57031 -3.0921,-3.96517 -4.7845,-9.59131 -5.10351,-16.85157 l -11.8125,0 z"
           style="font-style:normal;font-weight:normal;font-size:124.60793304px;line-height:125%;font-family:sans-serif;letter-spacing:0px;word-spacing:0px;fill:#ffffff;fill-opacity:1;stroke:none;stroke-width:1px;stroke-linecap:butt;stroke-linejoin:miter;stroke-opacity:1"
           inkscape:connector-curvature="0" />
      </g>
    </g>
  </g>
</svg>
